<svg xmlns="http://www.w3.org/2000/svg" width="1200" height="300" viewBox="0 0 1200 300" font-family="-apple-system, BlinkMacSystemFont, 'Segoe UI', Helvetica, Arial, sans-serif" role="img">
<text x="0.0" y="26.0" font-size="17" fill="#e6edf3" text-anchor="start" font-weight="700">Enterprise patterns in lib-common</text>
<text x="0.0" y="46.0" font-size="12" fill="#9198a1" text-anchor="start">the public shared library every service imports · github.com/niaga-labs/lib-common</text>
<rect x="24.0" y="66.0" width="376.0" height="64.0" rx="8" fill="#161b22" stroke="#3d444d" stroke-width="1"/>
<rect x="24.0" y="66.0" width="4.0" height="64.0" rx="2" fill="#ab7df8"/>
<text x="40.0" y="92.0" font-size="14" fill="#e6edf3" text-anchor="start" font-weight="700">Saga orchestrator</text>
<text x="40.0" y="112.0" font-size="11" fill="#9198a1" text-anchor="start">distributed transactions with compensation</text>
<rect x="416.0" y="66.0" width="376.0" height="64.0" rx="8" fill="#161b22" stroke="#3d444d" stroke-width="1"/>
<rect x="416.0" y="66.0" width="4.0" height="64.0" rx="2" fill="#ab7df8"/>
<text x="432.0" y="92.0" font-size="14" fill="#e6edf3" text-anchor="start" font-weight="700">Transactional outbox</text>
<text x="432.0" y="112.0" font-size="11" fill="#9198a1" text-anchor="start">reliable event publishing from Postgres</text>
<rect x="808.0" y="66.0" width="376.0" height="64.0" rx="8" fill="#161b22" stroke="#3d444d" stroke-width="1"/>
<rect x="808.0" y="66.0" width="4.0" height="64.0" rx="2" fill="#ab7df8"/>
<text x="824.0" y="92.0" font-size="14" fill="#e6edf3" text-anchor="start" font-weight="700">Event sourcing</text>
<text x="824.0" y="112.0" font-size="11" fill="#9198a1" text-anchor="start">domain events persisted, published on NATS</text>
<rect x="24.0" y="146.0" width="376.0" height="64.0" rx="8" fill="#161b22" stroke="#3d444d" stroke-width="1"/>
<rect x="24.0" y="146.0" width="4.0" height="64.0" rx="2" fill="#f0883e"/>
<text x="40.0" y="172.0" font-size="14" fill="#e6edf3" text-anchor="start" font-weight="700">Circuit breaker</text>
<text x="40.0" y="192.0" font-size="11" fill="#9198a1" text-anchor="start">closed / open / half-open for external calls</text>
<rect x="416.0" y="146.0" width="376.0" height="64.0" rx="8" fill="#161b22" stroke="#3d444d" stroke-width="1"/>
<rect x="416.0" y="146.0" width="4.0" height="64.0" rx="2" fill="#f0883e"/>
<text x="432.0" y="172.0" font-size="14" fill="#e6edf3" text-anchor="start" font-weight="700">Bulkhead</text>
<text x="432.0" y="192.0" font-size="11" fill="#9198a1" text-anchor="start">resource isolation against cascades</text>
<rect x="808.0" y="146.0" width="376.0" height="64.0" rx="8" fill="#161b22" stroke="#3d444d" stroke-width="1"/>
<rect x="808.0" y="146.0" width="4.0" height="64.0" rx="2" fill="#f0883e"/>
<text x="824.0" y="172.0" font-size="14" fill="#e6edf3" text-anchor="start" font-weight="700">Retry with backoff</text>
<text x="824.0" y="192.0" font-size="11" fill="#9198a1" text-anchor="start">configurable backoff strategy</text>
<rect x="24.0" y="226.0" width="376.0" height="64.0" rx="8" fill="#161b22" stroke="#3d444d" stroke-width="1"/>
<rect x="24.0" y="226.0" width="4.0" height="64.0" rx="2" fill="#4493f8"/>
<text x="40.0" y="252.0" font-size="14" fill="#e6edf3" text-anchor="start" font-weight="700">Distributed lock</text>
<text x="40.0" y="272.0" font-size="11" fill="#9198a1" text-anchor="start">Redis mutual exclusion for stock</text>
<rect x="416.0" y="226.0" width="376.0" height="64.0" rx="8" fill="#161b22" stroke="#3d444d" stroke-width="1"/>
<rect x="416.0" y="226.0" width="4.0" height="64.0" rx="2" fill="#3fb950"/>
<text x="432.0" y="252.0" font-size="14" fill="#e6edf3" text-anchor="start" font-weight="700">OpenTelemetry</text>
<text x="432.0" y="272.0" font-size="11" fill="#9198a1" text-anchor="start">traces across HTTP, GORM and NATS to Jaeger</text>
<rect x="808.0" y="226.0" width="376.0" height="64.0" rx="8" fill="#161b22" stroke="#3d444d" stroke-width="1"/>
<rect x="808.0" y="226.0" width="4.0" height="64.0" rx="2" fill="#3fb950"/>
<text x="824.0" y="252.0" font-size="14" fill="#e6edf3" text-anchor="start" font-weight="700">Sentry</text>
<text x="824.0" y="272.0" font-size="11" fill="#9198a1" text-anchor="start">error capture and performance in Gin</text>
</svg>